<?xml version="1.0" encoding="UTF-8"?>
<svg width="68px" height="76px" viewBox="0 0 68 76" version="1.1" xmlns="http://www.w3.org/2000/svg" xmlns:xlink="http://www.w3.org/1999/xlink">
    <title>A</title>
    <g id="Page-1" stroke="none" stroke-width="1" fill="none" fill-rule="evenodd">
        <g id="Desktop-HD" transform="translate(-1215.000000, -740.000000)" fill="#FFCCCB" fill-rule="nonzero">
            <path d="M1276.2692,814.469568 C1278.22233,814.469568 1279.89062,813.777837 1281.27408,812.394373 C1282.65755,811.01091 1283.34928,809.4891 1283.34928,807.828943 C1283.34928,806.233891 1282.61686,803.678553 1281.15201,800.162928 L1281.15201,800.162928 L1262.45084,753.971522 C1261.57194,751.660324 1260.84765,749.812993 1260.27799,748.429529 C1259.70833,747.046066 1259.00846,745.75212 1258.17838,744.547693 C1257.3483,743.343266 1256.25781,742.358566 1254.9069,741.593592 C1253.55598,740.828618 1251.87141,740.446131 1249.85319,740.446131 C1247.86751,740.446131 1246.19921,740.828618 1244.8483,741.593592 C1243.49739,742.358566 1242.4069,743.359542 1241.57682,744.596522 C1240.74674,745.833501 1239.96549,747.387863 1239.23307,749.259607 C1238.50065,751.131352 1237.87402,752.734542 1237.35319,754.069178 L1237.35319,754.069178 L1219.04264,800.553553 C1218.29394,802.409022 1217.75683,803.857589 1217.43131,804.899256 C1217.10579,805.940923 1216.94303,806.950037 1216.94303,807.9266 C1216.94303,809.619308 1217.6429,811.13298 1219.04264,812.467615 C1220.44238,813.802251 1222.05371,814.469568 1223.87662,814.469568 C1226.02506,814.469568 1227.57128,813.842941 1228.51529,812.589686 C1229.4593,811.33643 1230.59863,808.919438 1231.93326,805.338709 L1231.93326,805.338709 L1235.35123,796.159022 L1264.45279,796.159022 L1267.87076,805.143397 C1268.32649,806.250167 1268.87174,807.527837 1269.50651,808.976404 C1270.14127,810.424972 1270.73535,811.499191 1271.28873,812.199061 C1271.84212,812.89893 1272.52571,813.452316 1273.33951,813.859217 C1274.15332,814.266118 1275.12988,814.469568 1276.2692,814.469568 Z M1260.54654,785.27035 L1239.15983,785.27035 L1249.75553,755.729334 L1260.54654,785.27035 Z" id="A" transform="translate(1250.146154, 777.457850) rotate(2.000000) translate(-1250.146154, -777.457850) "></path>
        </g>
    </g>
</svg>