<?xml version="1.0" encoding="UTF-8"?>
<svg width="61px" height="76px" viewBox="0 0 61 76" version="1.1" xmlns="http://www.w3.org/2000/svg" xmlns:xlink="http://www.w3.org/1999/xlink">
    <title>E</title>
    <g id="Page-1" stroke="none" stroke-width="1" fill="none" fill-rule="evenodd">
        <g id="Desktop-HD" transform="translate(-1064.000000, -541.000000)" fill="#FFCCCB" fill-rule="nonzero">
            <path d="M1115.42511,614.462027 C1117.70376,614.462027 1119.42088,613.933056 1120.57648,612.875113 C1121.73208,611.817171 1122.30988,610.441845 1122.30988,608.749137 C1122.30988,606.991324 1121.73208,605.583447 1120.57648,604.525504 C1119.42088,603.467561 1117.70376,602.93859 1115.42511,602.93859 L1115.42511,602.93859 L1081.63605,602.93859 L1081.63605,582.577262 L1111.71418,582.577262 C1113.96027,582.577262 1115.62043,582.064566 1116.69464,581.039176 C1117.76886,580.013785 1118.30597,578.687288 1118.30597,577.059684 C1118.30597,575.43208 1117.76073,574.121858 1116.67023,573.12902 C1115.57974,572.136181 1113.92772,571.639762 1111.71418,571.639762 L1111.71418,571.639762 L1081.63605,571.639762 L1081.63605,554.061637 L1114.30207,554.061637 C1116.61326,554.061637 1118.33039,553.548941 1119.45343,552.523551 C1120.57648,551.49816 1121.138,550.139111 1121.138,548.446402 C1121.138,546.786246 1120.57648,545.443473 1119.45343,544.418082 C1118.33039,543.392691 1116.61326,542.879996 1114.30207,542.879996 L1114.30207,542.879996 L1076.02082,542.879996 C1073.97003,542.879996 1072.28546,543.181103 1070.96711,543.783316 C1069.64875,544.38553 1068.68032,545.345816 1068.06183,546.664176 C1067.44334,547.982535 1067.1341,549.683382 1067.1341,551.766715 L1067.1341,551.766715 L1067.1341,605.575309 C1067.1341,608.700309 1067.82583,610.962678 1069.20929,612.362418 C1070.59276,613.762158 1072.86326,614.462027 1076.02082,614.462027 L1076.02082,614.462027 L1115.42511,614.462027 Z" id="E" transform="translate(1094.721988, 578.671012) rotate(-5.000000) translate(-1094.721988, -578.671012) "></path>
        </g>
    </g>
</svg>