<?xml version="1.0" encoding="UTF-8"?>
<svg width="71px" height="82px" viewBox="0 0 71 82" version="1.1" xmlns="http://www.w3.org/2000/svg" xmlns:xlink="http://www.w3.org/1999/xlink">
    <title>H</title>
    <g id="Page-1" stroke="none" stroke-width="1" fill="none" fill-rule="evenodd">
        <g id="Desktop-HD" transform="translate(-1211.000000, -392.000000)" fill="#FFCCCB" fill-rule="nonzero">
            <path d="M1269.07709,469.637006 C1271.22553,469.637006 1272.98334,468.904584 1274.35053,467.439741 C1275.71772,465.974897 1276.40131,463.761355 1276.40131,460.799116 L1276.40131,460.799116 L1276.40131,404.402631 C1276.40131,401.440392 1275.72585,399.234988 1274.37494,397.78642 C1273.02403,396.337853 1271.25808,395.613569 1269.07709,395.613569 C1266.92865,395.613569 1265.19526,396.345991 1263.8769,397.810834 C1262.55854,399.275678 1261.89936,401.472944 1261.89936,404.402631 L1261.89936,404.402631 L1261.89936,424.910444 L1230.60053,424.910444 L1230.60053,404.402631 C1230.60053,401.440392 1229.92507,399.234988 1228.57416,397.78642 C1227.22325,396.337853 1225.4573,395.613569 1223.27631,395.613569 C1221.06277,395.613569 1219.31309,396.345991 1218.02729,397.810834 C1216.74148,399.275678 1216.09858,401.472944 1216.09858,404.402631 L1216.09858,404.402631 L1216.09858,460.799116 C1216.09858,463.728803 1216.74962,465.934207 1218.0517,467.415327 C1219.35378,468.896446 1221.09532,469.637006 1223.27631,469.637006 C1225.42475,469.637006 1227.18256,468.904584 1228.54975,467.439741 C1229.91694,465.974897 1230.60053,463.761355 1230.60053,460.799116 L1230.60053,460.799116 L1230.60053,436.72685 L1261.89936,436.72685 L1261.89936,460.799116 C1261.89936,463.728803 1262.5504,465.934207 1263.85248,467.415327 C1265.15457,468.896446 1266.8961,469.637006 1269.07709,469.637006 Z" id="H" transform="translate(1246.249943, 432.625288) rotate(10.000000) translate(-1246.249943, -432.625288) "></path>
        </g>
    </g>
</svg>