<?xml version="1.0" encoding="UTF-8"?>
<svg width="84px" height="84px" viewBox="0 0 84 84" version="1.1" xmlns="http://www.w3.org/2000/svg" xmlns:xlink="http://www.w3.org/1999/xlink">
    <title>R</title>
    <g id="Page-1" stroke="none" stroke-width="1" fill="none" fill-rule="evenodd">
        <g id="Desktop-HD" transform="translate(-1051.000000, -220.000000)" fill="#FFCCCB" fill-rule="nonzero">
            <path d="M1115.61491,295.725513 C1116.9821,295.725513 1118.18653,295.456958 1119.22819,294.919849 C1120.26986,294.382739 1121.0918,293.650317 1121.69401,292.722583 C1122.29623,291.794849 1122.59733,290.858976 1122.59733,289.914966 C1122.59733,289.003507 1122.08464,287.335213 1121.05925,284.910083 C1120.03386,282.484953 1118.60157,279.766854 1116.76237,276.755786 C1114.92318,273.744718 1112.83171,270.904549 1110.48796,268.235278 C1108.14421,265.566007 1105.68653,263.547778 1103.11491,262.180591 C1109.2347,260.845955 1113.80013,258.583586 1116.8112,255.393481 C1119.82227,252.203377 1121.3278,247.939054 1121.3278,242.600513 C1121.3278,239.996346 1120.88021,237.530526 1119.98503,235.203052 C1119.08985,232.875578 1117.77963,230.832934 1116.05437,229.075122 C1114.3291,227.317309 1112.34343,225.966398 1110.09733,225.022388 C1108.24187,224.176033 1106.15853,223.61451 1103.84733,223.337817 C1101.53614,223.061125 1098.75293,222.922778 1095.49772,222.922778 L1095.49772,222.922778 L1071.91374,222.922778 C1068.78874,222.922778 1066.52637,223.622648 1065.12663,225.022388 C1063.72689,226.422127 1063.02702,228.684497 1063.02702,231.809497 L1063.02702,231.809497 L1063.02702,286.887622 C1063.02702,289.784757 1063.66179,291.982023 1064.93132,293.479419 C1066.20085,294.976815 1067.99121,295.725513 1070.30241,295.725513 C1072.45085,295.725513 1074.19239,295.009367 1075.52702,293.577075 C1076.86166,292.144783 1077.52897,289.914966 1077.52897,286.887622 L1077.52897,286.887622 L1077.52897,263.889575 L1082.6071,263.889575 C1085.17871,263.889575 1087.31088,264.231372 1089.00358,264.914966 C1090.69629,265.598559 1092.36459,266.868091 1094.00847,268.723559 C1095.65235,270.579028 1097.51595,273.280851 1099.59929,276.829028 L1099.59929,276.829028 L1105.40983,286.496997 C1106.77702,288.775643 1107.85938,290.500903 1108.6569,291.672778 C1109.45443,292.844653 1110.40658,293.813078 1111.51335,294.578052 C1112.62012,295.343026 1113.98731,295.725513 1115.61491,295.725513 Z M1090.51726,253.489184 L1077.52897,253.489184 L1077.52897,233.81145 L1090.90788,233.81145 C1095.88835,233.81145 1099.22494,234.169523 1100.91765,234.885669 C1102.70801,235.634367 1104.10775,236.765552 1105.11687,238.279224 C1106.12598,239.792895 1106.63054,241.54257 1106.63054,243.528247 C1106.63054,246.067309 1106.00391,248.061125 1104.75065,249.509692 C1103.4974,250.95826 1101.68262,251.983651 1099.30632,252.585864 C1096.93002,253.188078 1094.00033,253.489184 1090.51726,253.489184 L1090.51726,253.489184 Z" id="R" transform="translate(1092.812178, 259.324145) rotate(-30.000000) translate(-1092.812178, -259.324145) "></path>
        </g>
    </g>
</svg>